<svg width="221" height="70" viewBox="0 0 221 70" fill="none" xmlns="http://www.w3.org/2000/svg">
<rect x="34.624" width="48.9658" height="48.9658" rx="10" transform="rotate(45 34.624 0)" fill="#1ED760"/>
<g clip-path="url(#clip0_94_260)">
<path d="M34.3938 18.5801C25.6582 18.5801 18.5762 25.6619 18.5762 34.3975C18.5762 43.1336 25.6582 50.2148 34.3938 50.2148C43.1304 50.2148 50.2117 43.1336 50.2117 34.3975C50.2117 25.6624 43.1306 18.5801 34.3938 18.5801ZM41.6477 41.3934C41.3644 41.8581 40.7562 42.0054 40.2915 41.7202C36.5777 39.4517 31.9025 38.9379 26.3965 40.1959C25.8659 40.3168 25.3371 39.9843 25.2162 39.4536C25.0947 38.9228 25.4258 38.3939 25.9577 38.2731C31.9831 36.8965 37.1515 37.4892 41.3209 40.0372C41.7856 40.3224 41.9329 40.9288 41.6477 41.3934ZM43.5838 37.0865C43.2268 37.6667 42.4675 37.85 41.8876 37.493C37.6358 34.8796 31.1547 34.1227 26.1256 35.6493C25.4734 35.8463 24.7846 35.4787 24.5866 34.8276C24.3902 34.1754 24.7579 33.4879 25.409 33.2896C31.1535 31.5465 38.295 32.3908 43.1777 35.3913C43.7575 35.7482 43.9407 36.5074 43.5838 37.0865ZM43.75 32.6016C38.652 29.5737 30.241 29.2952 25.3737 30.7725C24.5921 31.0095 23.7656 30.5683 23.5287 29.7867C23.2918 29.0047 23.7327 28.1788 24.5149 27.9411C30.1022 26.245 39.3905 26.5727 45.2599 30.057C45.9644 30.4742 46.1949 31.3822 45.7775 32.0843C45.3619 32.7873 44.4507 33.0191 43.75 32.6016Z" fill="#F5F5F5"/>
</g>
<path d="M91.44 42.14C89.8 42.14 88.4533 41.7533 87.4 40.98C86.3467 40.1933 85.78 39.0733 85.7 37.62H89.88C89.92 38.1133 90.0667 38.4733 90.32 38.7C90.5733 38.9267 90.9 39.04 91.3 39.04C91.66 39.04 91.9533 38.9533 92.18 38.78C92.42 38.5933 92.54 38.34 92.54 38.02C92.54 37.6067 92.3467 37.2867 91.96 37.06C91.5733 36.8333 90.9467 36.58 90.08 36.3C89.16 35.9933 88.4133 35.7 87.84 35.42C87.28 35.1267 86.7867 34.7067 86.36 34.16C85.9467 33.6 85.74 32.8733 85.74 31.98C85.74 31.0733 85.9667 30.3 86.42 29.66C86.8733 29.0067 87.5 28.5133 88.3 28.18C89.1 27.8467 90.0067 27.68 91.02 27.68C92.66 27.68 93.9667 28.0667 94.94 28.84C95.9267 29.6 96.4533 30.6733 96.52 32.06H92.26C92.2467 31.6333 92.1133 31.3133 91.86 31.1C91.62 30.8867 91.3067 30.78 90.92 30.78C90.6267 30.78 90.3867 30.8667 90.2 31.04C90.0133 31.2133 89.92 31.46 89.92 31.78C89.92 32.0467 90.02 32.28 90.22 32.48C90.4333 32.6667 90.6933 32.8333 91 32.98C91.3067 33.1133 91.76 33.2867 92.36 33.5C93.2533 33.8067 93.9867 34.1133 94.56 34.42C95.1467 34.7133 95.6467 35.1333 96.06 35.68C96.4867 36.2133 96.7 36.8933 96.7 37.72C96.7 38.56 96.4867 39.3133 96.06 39.98C95.6467 40.6467 95.04 41.1733 94.24 41.56C93.4533 41.9467 92.52 42.14 91.44 42.14ZM102.442 32.34C102.749 31.82 103.182 31.4067 103.742 31.1C104.302 30.7933 104.962 30.64 105.722 30.64C106.616 30.64 107.422 30.8733 108.142 31.34C108.876 31.8067 109.449 32.4733 109.862 33.34C110.289 34.2067 110.502 35.22 110.502 36.38C110.502 37.54 110.289 38.56 109.862 39.44C109.449 40.3067 108.876 40.9733 108.142 41.44C107.422 41.9067 106.616 42.14 105.722 42.14C104.962 42.14 104.302 41.9867 103.742 41.68C103.196 41.3733 102.762 40.96 102.442 40.44V47.36H98.5223V30.78H102.442V32.34ZM106.522 36.38C106.522 35.6467 106.322 35.08 105.922 34.68C105.536 34.2667 105.056 34.06 104.482 34.06C103.909 34.06 103.422 34.2667 103.022 34.68C102.636 35.0933 102.442 35.66 102.442 36.38C102.442 37.1133 102.636 37.6867 103.022 38.1C103.422 38.5133 103.909 38.72 104.482 38.72C105.056 38.72 105.536 38.5133 105.922 38.1C106.322 37.6733 106.522 37.1 106.522 36.38ZM117.336 42.14C116.216 42.14 115.209 41.9067 114.316 41.44C113.436 40.9733 112.743 40.3067 112.236 39.44C111.729 38.5733 111.476 37.5533 111.476 36.38C111.476 35.22 111.729 34.2067 112.236 33.34C112.756 32.4733 113.456 31.8067 114.336 31.34C115.229 30.8733 116.236 30.64 117.356 30.64C118.476 30.64 119.476 30.8733 120.356 31.34C121.249 31.8067 121.949 32.4733 122.456 33.34C122.976 34.2067 123.236 35.22 123.236 36.38C123.236 37.54 122.976 38.56 122.456 39.44C121.949 40.3067 121.249 40.9733 120.356 41.44C119.463 41.9067 118.456 42.14 117.336 42.14ZM117.336 38.74C117.883 38.74 118.336 38.54 118.696 38.14C119.069 37.7267 119.256 37.14 119.256 36.38C119.256 35.62 119.069 35.04 118.696 34.64C118.336 34.24 117.889 34.04 117.356 34.04C116.823 34.04 116.376 34.24 116.016 34.64C115.656 35.04 115.476 35.62 115.476 36.38C115.476 37.1533 115.649 37.74 115.996 38.14C116.343 38.54 116.789 38.74 117.336 38.74ZM131.451 38.66V42H129.751C126.884 42 125.451 40.58 125.451 37.74V34.04H124.071V30.78H125.451V28.06H129.391V30.78H131.431V34.04H129.391V37.8C129.391 38.1067 129.458 38.3267 129.591 38.46C129.738 38.5933 129.978 38.66 130.311 38.66H131.451ZM135.229 29.74C134.536 29.74 133.976 29.5533 133.549 29.18C133.136 28.7933 132.929 28.3133 132.929 27.74C132.929 27.1533 133.136 26.6667 133.549 26.28C133.976 25.8933 134.536 25.7 135.229 25.7C135.909 25.7 136.456 25.8933 136.869 26.28C137.296 26.6667 137.509 27.1533 137.509 27.74C137.509 28.3133 137.296 28.7933 136.869 29.18C136.456 29.5533 135.909 29.74 135.229 29.74ZM137.169 30.78V42H133.249V30.78H137.169ZM145.461 34.04H143.701V42H139.761V34.04H138.541V30.78H139.761V30.68C139.761 29.24 140.181 28.14 141.021 27.38C141.875 26.6067 143.095 26.22 144.681 26.22C145.001 26.22 145.248 26.2267 145.421 26.24V29.58C145.315 29.5667 145.168 29.56 144.981 29.56C144.555 29.56 144.241 29.66 144.041 29.86C143.841 30.0467 143.728 30.3533 143.701 30.78H145.461V34.04ZM158.942 30.78L151.822 47.34H147.562L150.242 41.52L145.642 30.78H150.002L152.362 37.14L154.642 30.78H158.942ZM183.656 27.9L180.196 42H175.376L173.436 33.36L171.456 42H166.636L163.216 27.9H167.456L169.096 37.54L171.316 27.9H175.616L177.776 37.46L179.416 27.9H183.656ZM189.239 32.76C189.679 32.12 190.213 31.6133 190.839 31.24C191.466 30.8667 192.139 30.68 192.859 30.68V34.86H191.759C190.906 34.86 190.273 35.0267 189.859 35.36C189.446 35.6933 189.239 36.2733 189.239 37.1V42H185.319V30.78H189.239V32.76ZM193.625 36.38C193.625 35.22 193.831 34.2067 194.245 33.34C194.671 32.4733 195.245 31.8067 195.965 31.34C196.698 30.8733 197.511 30.64 198.405 30.64C199.178 30.64 199.845 30.7933 200.405 31.1C200.965 31.4067 201.398 31.82 201.705 32.34V30.78H205.625V42H201.705V40.44C201.398 40.96 200.958 41.3733 200.385 41.68C199.825 41.9867 199.165 42.14 198.405 42.14C197.511 42.14 196.698 41.9067 195.965 41.44C195.245 40.9733 194.671 40.3067 194.245 39.44C193.831 38.56 193.625 37.54 193.625 36.38ZM201.705 36.38C201.705 35.66 201.505 35.0933 201.105 34.68C200.718 34.2667 200.238 34.06 199.665 34.06C199.078 34.06 198.591 34.2667 198.205 34.68C197.818 35.08 197.625 35.6467 197.625 36.38C197.625 37.1 197.818 37.6733 198.205 38.1C198.591 38.5133 199.078 38.72 199.665 38.72C200.238 38.72 200.718 38.5133 201.105 38.1C201.505 37.6867 201.705 37.1133 201.705 36.38ZM211.778 32.34C212.085 31.82 212.518 31.4067 213.078 31.1C213.638 30.7933 214.298 30.64 215.058 30.64C215.952 30.64 216.758 30.8733 217.478 31.34C218.212 31.8067 218.785 32.4733 219.198 33.34C219.625 34.2067 219.838 35.22 219.838 36.38C219.838 37.54 219.625 38.56 219.198 39.44C218.785 40.3067 218.212 40.9733 217.478 41.44C216.758 41.9067 215.952 42.14 215.058 42.14C214.298 42.14 213.638 41.9867 213.078 41.68C212.532 41.3733 212.098 40.96 211.778 40.44V47.36H207.858V30.78H211.778V32.34ZM215.858 36.38C215.858 35.6467 215.658 35.08 215.258 34.68C214.872 34.2667 214.392 34.06 213.818 34.06C213.245 34.06 212.758 34.2667 212.358 34.68C211.972 35.0933 211.778 35.66 211.778 36.38C211.778 37.1133 211.972 37.6867 212.358 38.1C212.758 38.5133 213.245 38.72 213.818 38.72C214.392 38.72 214.872 38.5133 215.258 38.1C215.658 37.6733 215.858 37.1 215.858 36.38Z" fill="white"/>
<defs>
<clipPath id="clip0_94_260">
<rect width="31.7616" height="31.7616" fill="white" transform="translate(18.5273 18.5273)"/>
</clipPath>
</defs>
</svg>
