<svg width="975" height="415" viewBox="0 0 975 415" fill="none" xmlns="http://www.w3.org/2000/svg">
<g clip-path="url(#clip0_502_179)">
<path d="M312.973 331.077H268.503V409.125H160.682V331.077H0V251.35L167.814 5.87451H268.503V249.671H312.973V331.077ZM160.682 249.671V202.674C160.682 193.862 161.102 182.113 161.521 167.007C162.36 151.901 162.78 144.348 163.199 143.508H160.262C153.969 157.775 146.837 170.783 138.866 183.372L94.3954 249.671H160.682Z" fill="#1ED760"/>
<path d="M632.659 208.129C632.659 279.464 620.493 331.916 596.999 365.066C573.085 398.215 536.586 415 487.08 415C438.834 415 402.754 397.796 378.001 362.968C353.668 328.14 341.502 276.527 341.502 208.129C341.502 136.375 353.249 83.9231 377.582 50.3539C401.495 16.7846 437.995 0 487.5 0C535.327 0 571.827 17.6239 596.16 52.452C620.493 87.2801 632.659 138.893 632.659 208.129ZM449.742 208.129C449.742 253.868 452.679 285.339 458.133 302.123C464.006 319.328 473.236 327.72 486.661 327.72C500.086 327.72 509.735 318.908 515.609 301.284C521.063 283.66 524 252.609 524 208.129C524 163.231 521.063 132.179 515.609 114.135C509.735 96.092 500.506 87.2801 487.08 87.2801C473.655 87.2801 464.006 96.092 458.552 113.296C452.679 130.501 449.742 161.972 449.742 208.129Z" fill="#1ED760"/>
<path d="M975 331.077H930.529V409.125H822.709V331.077H662.027V251.35L829.841 5.87451H930.529V249.671H975V331.077ZM823.128 249.671V202.674C823.128 193.862 823.548 182.113 823.967 167.007C824.806 151.901 825.226 144.348 825.645 143.508H822.709C816.416 157.775 809.284 170.783 801.312 183.372L756.422 250.091H823.128V249.671Z" fill="#1ED760"/>
</g>
<g clip-path="url(#clip1_502_179)">
<path d="M702.94 190.962C702.94 190.962 700.533 114.88 627.424 111.134C544.689 106.888 549.834 193.126 549.834 193.126C549.834 193.126 572.738 181.639 621.366 183.054C677.049 184.469 702.94 190.962 702.94 190.962Z" fill="white"/>
<path d="M687.339 41.4606C683.605 25.5616 664.767 40.7947 632.154 31.5549C605.018 23.8135 596.139 3.41944 587.011 10.4949C577.882 17.5704 590.579 40.7947 629.582 54.0301C658.626 63.9358 691.654 60.0234 687.339 41.4606Z" fill="white"/>
<path d="M290.259 46.705C292.582 30.5562 312.747 44.1245 344.364 31.9713C370.754 21.8991 377.807 0.839078 387.516 7.08216C397.226 13.4085 386.521 37.6317 348.846 54.1967C320.797 66.5996 287.52 65.5175 290.259 46.705Z" fill="white"/>
<path d="M273.081 188.132C273.081 188.132 276.566 112.049 349.592 109.302C432.328 106.139 426.104 192.294 426.104 192.294C426.104 192.294 403.366 180.557 354.738 181.223C299.055 181.972 273.081 188.132 273.081 188.132Z" fill="white"/>
<path d="M631.822 110.468C673.315 125.618 675.555 173.481 675.389 185.884C692.899 189.131 701.28 193.459 701.28 193.459C701.28 193.459 707.172 112.299 631.822 110.468Z" fill="#EFEFEF"/>
<path d="M356.563 109.219C398.055 124.369 400.296 172.233 400.13 184.635C417.64 187.882 426.021 192.21 426.021 192.21C426.021 192.21 431.996 111.05 356.563 109.219Z" fill="#EFEFEF"/>
<path d="M389.674 173.897C389.674 151.672 371.749 133.692 349.592 133.692C327.436 133.692 309.511 151.672 309.511 173.897C309.511 177.144 309.926 180.39 310.673 183.387C322.457 182.471 337.062 181.639 354.738 181.389C367.932 181.223 379.135 181.972 388.595 183.054C389.342 180.224 389.674 177.144 389.674 173.897Z" fill="white"/>
<path d="M340.464 171.567C347.614 171.567 353.41 165.753 353.41 158.581C353.41 151.409 347.614 145.595 340.464 145.595C333.315 145.595 327.519 151.409 327.519 158.581C327.519 165.753 333.315 171.567 340.464 171.567Z" fill="white"/>
<path d="M586.513 175.229C586.845 153.004 605.018 135.273 627.092 135.606C649.249 135.939 666.925 154.169 666.593 176.311C666.51 179.558 666.095 182.804 665.348 185.801C653.564 184.719 638.959 183.72 621.366 183.22C608.172 182.887 596.969 183.47 587.509 184.469C586.845 181.472 586.513 178.392 586.513 175.229Z" fill="white"/>
<path d="M648.871 160.698C648.966 153.527 643.248 147.636 636.099 147.541C628.95 147.446 623.078 153.182 622.983 160.353C622.888 167.524 628.606 173.414 635.755 173.51C642.904 173.605 648.776 167.869 648.871 160.698Z" fill="white"/>
<path d="M619.541 291.85C618.213 291.85 616.885 291.184 616.138 290.019C616.055 289.935 607.923 278.115 590.081 266.545C573.733 255.89 545.519 243.237 504.358 243.237C504.192 243.237 504.026 243.237 503.86 243.237C440.875 243.404 393.989 289.02 393.491 289.519C391.832 291.101 389.259 291.101 387.599 289.519C386.023 287.854 386.023 285.274 387.599 283.609C388.097 283.11 400.13 271.289 420.461 259.303C439.299 248.232 469.007 234.996 503.778 234.913C503.943 234.913 504.109 234.913 504.358 234.913C547.842 234.913 577.634 248.481 594.977 259.802C614.064 272.288 622.611 284.858 623.026 285.357C624.271 287.272 623.856 289.852 621.947 291.101C621.117 291.6 620.288 291.85 619.541 291.85Z" fill="white"/>
<path d="M376.147 269.791C369.592 280.363 368.43 294.014 373.16 305.502C373.575 306.501 374.571 307.25 375.733 306.917C376.728 306.667 377.641 305.418 377.143 304.336C372.828 293.765 373.741 281.528 379.716 271.872C381.127 269.625 377.558 267.46 376.147 269.791Z" fill="white"/>
<path d="M624.271 273.038C632.154 280.696 635.142 292.766 631.905 303.254C631.076 305.835 635.142 306.917 635.889 304.336C639.623 292.433 636.138 278.781 627.175 270.041C625.267 268.21 622.279 271.206 624.271 273.038Z" fill="white"/>
<path d="M411.831 169.985C410.752 168.986 409.673 168.07 408.345 167.571C406.271 166.822 404.03 167.321 401.873 166.988C397.06 166.073 394.238 161.078 390.006 158.498C383.865 154.752 375.484 156.999 370.422 162.16C367.351 165.323 364.53 169.819 360.131 169.902C358.057 169.985 356.065 168.986 353.991 168.653C348.68 167.737 343.701 171.067 338.473 172.316C333.494 173.564 328.017 172.898 323.452 170.568C317.892 167.654 312.581 162.244 306.607 163.992C300.881 165.74 298.723 173.231 293.08 175.229C289.097 176.728 284.284 174.896 280.466 176.728C276.566 178.642 275.155 183.387 274.243 187.715L349.675 181.389L423.2 189.463C423.283 181.639 417.474 175.229 411.831 169.985Z" fill="#7ECDEC"/>
<path d="M426.104 195.291C425.606 195.291 425.108 195.207 424.693 194.958C424.444 194.874 401.873 183.554 354.82 184.219C300.217 184.969 274.077 190.962 273.745 191.045C272.832 191.295 271.836 191.045 271.089 190.379C270.342 189.797 269.927 188.798 270.01 187.882C270.01 187.05 271.006 167.987 281.213 148.259C290.674 129.863 310.258 107.638 349.51 106.139C374.239 105.224 393.823 111.966 407.516 126.284C431.83 151.506 429.257 190.796 429.175 192.46C429.092 193.459 428.511 194.375 427.598 194.958C427.183 195.207 426.602 195.291 426.104 195.291ZM358.887 178.06C393.74 178.06 414.652 184.386 423.117 187.632C423.034 176.977 420.959 149.092 403.034 130.529C390.504 117.543 372.579 111.467 349.675 112.299C320.548 113.381 299.304 126.45 286.607 151.089C279.72 164.491 277.313 177.81 276.483 184.219C285.86 182.471 311.171 178.642 354.655 178.06C356.148 178.06 357.559 178.06 358.887 178.06Z" fill="white"/>
<path d="M566.763 173.232C572.406 172.482 577.965 175.646 583.608 174.896C588.753 174.147 592.82 170.318 597.467 167.904C602.695 165.157 608.836 164.158 614.645 165.157C622.86 166.572 630.578 171.733 638.876 170.568C646.262 169.486 651.822 163.576 658.46 160.329C667.174 156.084 678.045 156.583 686.343 161.661C694.642 166.739 700.036 176.228 700.119 185.967C700.119 186.717 700.119 187.466 699.621 188.049C699.04 188.798 697.961 188.881 697.048 188.881C693.646 188.881 690.326 188.298 686.924 187.716C657.962 183.054 628.42 182.471 599.044 183.553C591.243 183.803 583.359 184.219 575.559 185.468C567.592 186.717 560.29 190.629 552.655 192.044C551.659 184.303 559.128 174.23 566.763 173.232Z" fill="#7ECDEC"/>
<path d="M549.917 196.123C549.419 196.123 548.838 195.956 548.34 195.707C547.427 195.207 546.846 194.292 546.846 193.209C546.763 191.545 544.772 152.255 569.335 127.366C583.277 113.298 602.861 106.722 627.673 108.054C666.842 110.052 686.094 132.527 695.388 151.089C705.347 170.984 706.01 190.046 706.093 190.879C706.093 191.878 705.678 192.793 704.932 193.376C704.185 193.959 703.189 194.208 702.276 193.959C702.027 193.875 675.887 187.549 621.366 186.051C574.314 184.719 551.576 195.707 551.328 195.873C550.83 196.04 550.332 196.123 549.917 196.123ZM621.698 113.964C601.45 113.964 585.268 119.874 573.65 131.611C555.56 149.924 553.07 177.727 552.821 188.465C561.701 185.218 584.023 178.809 621.366 179.891C664.85 181.056 690.16 185.218 699.455 187.05C698.708 180.557 696.467 167.072 689.663 153.587C677.215 128.864 656.22 115.629 627.175 114.13C625.433 114.047 623.524 113.964 621.698 113.964Z" fill="white"/>
</g>
<defs>
<clipPath id="clip0_502_179">
<rect width="975" height="415" fill="white"/>
</clipPath>
<clipPath id="clip1_502_179">
<rect width="436" height="301" fill="white" transform="translate(270 6)"/>
</clipPath>
</defs>
</svg>
